<svg width="17" height="4" viewBox="0 0 17 4" fill="none" xmlns="http://www.w3.org/2000/svg">
  <path fill-rule="evenodd" clip-rule="evenodd" d="M0.166626 2.10661C0.166626 1.18986 0.841473 0.517578 1.70037 0.517578C2.55926 0.517578 3.21366 1.18986 3.21366 2.10661C3.21366 3.02336 2.55926 3.69564 1.70037 3.69564C0.841473 3.69564 0.166626 3.02336 0.166626 2.10661ZM6.97644 2.10661C6.97644 1.18986 7.65129 0.517578 8.51018 0.517578C9.36908 0.517578 10.0235 1.18986 10.0235 2.10661C10.0235 3.02336 9.36908 3.69564 8.51018 3.69564C7.65129 3.69564 6.97644 3.02336 6.97644 2.10661ZM13.8068 2.10661C13.8068 1.18986 14.4612 0.517578 15.3201 0.517578C16.179 0.517578 16.8333 1.18986 16.8333 2.10661C16.8333 3.02336 16.179 3.69564 15.3201 3.69564C14.4612 3.69564 13.8068 3.02336 13.8068 2.10661Z" fill="black" fill-opacity="0.21023"/>
</svg>
